<svg xmlns="http://www.w3.org/2000/svg" viewBox="0 0 269.5 128"><g fill="#F26722"><path d="M152.2 68.9c0-3.4 2.6-5.9 5.9-5.9 3.3 0 5.9 2.5 5.9 5.9 0 3.4-2.6 5.9-5.9 5.9-3.3 0-5.9-2.5-5.9-5.9m9.9 0c0-2.4-1.7-4.3-4.1-4.3-2.4 0-4.1 1.8-4.1 4.3 0 2.4 1.7 4.3 4.1 4.3 2.5 0 4.1-1.9 4.1-4.3m15.9 5.7h-2.1l-2-2.8H172v2.7h-1.8V63.2h2.9c3.2 0 4.9 1.7 4.9 4.4 0 1.8-.8 3.1-2.3 3.8l2.3 3.2m-5-4.3c2.2 0 3.1-1.1 3.1-2.8 0-1.7-.9-2.8-3.1-2.8h-1v5.6h1zm12 4.3h-1.8l5-11.7h.1l5.1 11.7h-1.9l-.7-1.6h-5.1l-.7 1.6m3.3-7.7l-1.9 4.5h3.8l-1.9-4.5m12.6.2v7.5h-1.7V63h.2l7.3 7.7v-7.5h1.7v11.6h-.1zm13.7 1.8c0-3.4 2.7-5.9 6-5.9 2.1 0 3.7.8 4.7 2.3l-1.4 1c-.7-1-1.7-1.7-3.4-1.7-2.3 0-4 1.8-4 4.3 0 2.4 1.7 4.3 4 4.3 2 0 3.1-.9 3.5-2h-3.2v-1.6h5.3c-.1 3.3-2.2 5.3-5.5 5.3-3.4-.1-6-2.6-6-6m17.6-5.7h7.3v1.6H234v4.7h4.9v1.6H234V73h5.8v1.6h-7.6zM76.4 58.5c-.4 0-.8 0-1.1.1-.7.1-1.4.2-2.1.1-.3 0-.7-.1-1-.2-1.5-.7-2.1-2.3-2.6-3.8-.6-1.8-1.3-3.6-2.9-4.6-3.5-2.3-8.8-3-12.2-.2-1.2 1-2.2 1.6-3.7 1.9-1.3.3-2.6-1.1-3.3-2.1-.7-1-1-2.5-1.5-3.7-.4-1.2-1-2.2-1.7-3.1-1-1.3-2.1-2.4-3.2-3.6l-.2-.2c-1.1-1.1-2.5-2-3.5-3.3-.7-.8-1-1.8-1.4-2.6-1.1-2.3-2-4.8-2.9-7.2-.4-.9-.7-1.9-1.2-2.8-1.2-2.3-5-9.3-13-9.4-1 0-2-.1-3-.2-1.4-.1-2.9-.1-4.2-.6-1.2-.5-2.3-1.4-3.7-1.7-1.3-.2-2.1 1.3-2.6 2.2-.9 1.6-.6 3.2-.1 4.9.7 2.5 1.8 4.6 3.4 6.7 1.4 1.8 2.7 3.7 3.9 5.6.2.4.4.8.6 1.1.2.4.4.9.6 1.3.6 1.3 1.1 2.7 1.6 4.1.6 1.8 1.1 3.6 1.4 5.5.2 1.1.3 2.1.4 3.2 0 .5.1 1.1.1 1.6.3 4.3 1.2 8.5 3.5 12.3.5.9 1 1.8 1.2 2.8.2.8.2 1.6.5 2.4.3 1 1.1 1.8 1.4 2.9.3 1.3-.9 2.8-2.3 2.5-1.9-.4-3.8-.9-5.6-1.4-.4-.1-.8-.2-1.1-.2 1.3 2.7 2.8 5.2 4.7 7.5.8.1 1.7.2 2.6.1 1.4-.2 2.9-.5 4.3-.7.9-.1 1.8-.4 2.6-.1.7.2 1.3.7 1.8 1.1 1.2 1 2.4 1.9 3.6 2.8.5.3 1.1.7 1.7.9 1.3.3 2.7.2 3.9.7 1.4.6 2 2 2.3 3.4.4 1.8 1.8 3.3 3.2 4.5.4.3 1.5 1 3.1 1.8 4.9-.9 9.4-2.9 13.4-5.8-1.5-.8-2.9-1.6-4.4-2.3-.9-.4-1.7-.9-2.6-1.2-2.3-.9-2.4-1.4-2.2-2 .2-.6.6-.7 1.4-1 .8-.3 9.3-2.7 13.5-8.2 1-1.3 1.7-2.6 3.5-2.2 1.1.2 2.2.7 3.2 1.2 1.4-3.4 2.5-7 3-10.8-.4-.1-.8-.1-1.1 0M21.3 21.1c-.5 1-1.8 1.2-3 .6s-1.7-1.9-1.3-2.8c.5-.9 1.9-1.2 3-.6 1.3.5 1.8 1.8 1.3 2.8"/><path d="M264.9 99.9c-.6 1.3-1.3 2.6-2 3.8-.7 1.2-1.6 2.4-2.7 3.5-.8.7-1.6 1.3-2.3 1.7-.7.4-1.3.6-1.8.6-.7.1-1.2 0-1.5-.2-.3-.2-.5-.5-.5-.9 0-.3.1-.7.2-1.1.1-.5.3-1 .6-1.5 2.1-6.4 4.3-12.7 6.5-19.1 2.2-6.4 4.4-12.7 6.6-19.1h-18.1C248 73.3 246 79.1 244 85c-1.7 5-3.4 10.1-5.2 15.1 0 .1 0 .1-.1.2 0 .1 0 .2-.1.3 0 .1 0 .1-.1.2 0 .1-.1.2-.1.3-.1.1-.1.3-.2.4-.2.4-.5 1-.9 1.6-.4.7-.9 1.4-1.4 2-.5.7-1.1 1.4-1.8 2.1-.7.7-1.3 1.2-2 1.7-.4.2-.7.4-1 .5-.3.1-.7.2-1.1.2-.2.1-.4.1-.5 0-.1 0-.3-.1-.4-.1-.2-.1-.4-.2-.5-.5-.1-.2-.1-.5-.1-.7v-.4c0-.1 0-.2.1-.4 0-.2 0-.4.1-.6.1-.2.1-.4.2-.5 0-.2 0-.3.1-.4.1-.1.1-.2.1-.2.7-2.3 1.5-4.5 2.2-6.8.8-2.2 1.5-4.4 2.3-6.6.4-1.1.7-2.2 1.1-3.3.4-1.1.8-2.2 1.1-3.3H218l-.9 2.7c-1.5-1.2-3.1-2.1-4.9-2.7-1.8-.6-3.7-.9-5.7-.9h-.8c-.3 0-.5 0-.8.1-2.4.1-4.8.6-7.2 1.5-2.3.9-4.4 2-6.1 3.4-2.3 1.8-4.2 4-5.7 6.6-1.3 2.2-2 4.5-2.2 6.9-1.5 2.4-3.3 4.6-5.5 6.3-3.1 2.6-7 3.9-11.5 3.9-2.3 0-4.1-.6-5.5-1.8-1.4-1.2-2.2-2.9-2.5-5.1 1.3.1 2.8 0 4.6-.2 1.8-.2 3.6-.5 5.5-1 3.4-.9 6.6-2.2 9.4-4.1 2.9-1.9 4.3-4.5 4.1-7.8-.1-2.1-.9-3.7-2.4-4.9-1.6-1.2-3.2-2.1-5-2.6-.2-.1-.3-.1-.5-.1s-.3-.1-.5-.1c-1-.3-2.2-.5-3.4-.6-1.2-.1-2.5-.2-3.8-.2-.9 0-1.7 0-2.6.1l-2.7.3c-4.2.5-8.2 1.9-11.9 3.9-2.2 1.2-3.9 2.6-5.2 4.4-.5-4.3-2.1-8.1-4.9-11.2-3.3-3.7-7-7.1-11-10-.6-.3-1.1-.7-1.7-1.1-.5-.4-1.1-.8-1.5-1.1-.5-.3-1-.7-1.6-1.1-.6-.4-1.2-.9-1.9-1.3-1.3-1.1-2.6-2.3-3.7-3.6-1.2-1.3-1.8-2.8-1.9-4.3 0-.3 0-.6.1-.9l.3-.9c.6-1.9 1.9-3.3 3.8-4.2 1.9-.9 3.8-1.3 5.9-1.3h.4c2.4.1 4.6.7 6.6 1.8s3 2.7 3 4.8v.8c-.1.3-.1.6-.2.9-.3 1-.5 1.7-.9 2.2-.3.5-.7.9-1.2 1.2-.3.3-.7.5-1.1.7-.4.2-.8.5-1.3.9.3.2.6.3.9.5.2.2.5.3.9.5.6.3 1.2.6 1.7.9.6.3 1.1.5 1.7.7l1.5.3c.5.1 1.1.1 1.7.1h.9c2.1-.2 4-.7 5.8-1.7 1.8-1 3-2.5 3.5-4.6.2-.6.3-1.1.3-1.6s.1-.9.1-1.4c.1-3.2-1.1-5.8-3.6-7.6-2.5-1.9-5.2-3.3-8.2-4.3-.6-.2-1.2-.3-1.7-.5-.6-.2-1.2-.3-1.7-.4-1.3-.2-2.8-.4-4.4-.5-1.6-.1-3.2-.2-4.9-.3-1.3 0-2.6 0-4 .1-1.3.1-2.7.2-4.1.4-5.6.7-10.9 2.4-16 4.8-1 .5-1.9 1-2.7 1.6.2.2.4.3.5.5.5.5 1.1.9 1.6 1.4-.1.7-.2 1.4-.4 2.1-.1.7-.3 1.4-.4 2-.1.7-.3 1.4-.5 2-.2.7-.3 1.3-.5 2-.7.2-1.3.4-2 .6l-1.8.6c-.5.2-1 .5-1.3.7-.4.3-.6.6-.7.9-.1.3-.1.7 0 1.2.1.4.4.9.6 1.4.3.5.7 1 1.1 1.6.4.5.8 1.1 1.3 1.7-.3.6-.5 1.3-.8 1.9-.3.6-.5 1.2-.8 1.9l-.9 1.8c-.3.5-.5 1.1-.8 1.6.5.7.9 1.3 1.5 1.9 2.9 3.1 6.1 6 9.5 8.7.1 0 .1 0 .2.1l.2.2c.1.1.2.1.2.2 0 0 .1.1.2.1 2.9 2.3 5.6 4.7 8 7.2 2.4 2.5 3.7 5.4 3.7 8.7 0 .6 0 1.1-.1 1.7-.1.5-.2 1.1-.4 1.8-1 3.8-3.1 6.7-6.3 8.7-2.1 1-4.4 1.6-6.8 1.7h-.7c-3.1 0-5.9-.8-8.4-2.5-2.5-1.6-3.8-4.2-3.8-7.5 0-.4 0-.9.1-1.4.1-.5.2-1 .2-1.5.1-.8.5-1.5 1.1-2.2.6-.7 1.2-1.3 1.8-1.8.1-.1.2-.1.3-.2.1-.1.2-.1.2-.2.3-.2.6-.4.8-.6.2-.1.3-.2.4-.3.1-.1.1-.1.1-.2s-.1-.3-.2-.5c-.2-.2-.4-.5-.8-.9-.8-1-1.8-1.7-3-2.1-1.2-.4-2.4-.6-3.7-.6h-1.5c-.5 0-1 .1-1.5.2-2.8.7-4.9 2-6.3 3.9-1.4 2-2.1 4.1-2.1 6.4v.7c0 .2 0 .4.1.6.2 2 .8 3.8 1.9 5.7 1.1 1.8 2.5 3.4 4.4 4.6 2.5 1.7 5.5 3 8.8 3.9 2.5.6 5.1 1 7.7 1.2-3.3.2-6.5.1-9.6-.3-4.4-.6-8.5-1.8-12-3.7-2.7-1.4-5-3.4-6.8-5.8-1.7-2.3-2.9-4.9-3.6-7.5-.2-.4-.3-.8-.3-1.3l.1-1.1c-.2-1.9-.2-3.7.2-5.5.1-.4.2-.9.3-1.3.1-.4.3-.9.4-1.3.2-.6.5-1.2.8-1.8.1-.2.2-.3.3-.4.2-.4.5-.8.8-1.3.2-.2.3-.5.5-.7 1.5-1.9 3.6-3.4 6.2-4.5.1 0 .1-.1.2-.1h.2c.1 0 .2-.1.3-.1.7-.3 1.4-.5 2.2-.6.6-.1 1.3-.2 1.9-.3h.6c.2-.2.4-.5.5-.7.3-.4.6-.7.8-1.1.3-.4.5-.7.8-1.1-.2-.4-.4-.9-.6-1.3-.2-.4-.4-.8-.5-1.2-.1-.4-.2-.7-.2-1 0-.3 0-.6.1-.8.1-.2.3-.4.6-.5.3-.1.6-.2 1-.3.4-.1.8-.1 1.3-.1s.9 0 1.4-.1c.2-.4.4-.8.6-1.3.2-.4.4-.9.6-1.3.2-.4.4-.9.6-1.3.2-.4.4-.9.6-1.3l-.9-1.2c-.3-.4-.5-.8-.7-1.1-.2-.3-.4-.7-.5-1-.1-.3-.1-.6 0-.8.1-.2.3-.4.5-.6.3-.2.6-.4.9-.5.4-.2.8-.3 1.2-.4.4-.1.9-.3 1.4-.4.1-.5.2-.9.4-1.4.1-.5.2-.9.3-1.4.1-.5.2-1 .3-1.4.1-.5.2-1 .3-1.4-.4-.3-.8-.6-1.1-1-.4-.3-.7-.6-1-.9-.3-.3-.5-.6-.7-.9-.2-.3-.2-.6-.2-.8 0-.3.2-.5.4-.7.2-.2.5-.5.8-.7.3-.2.7-.5 1.1-.7.4-.2.8-.5 1.3-.7v-5.6c-.4-.2-.9-.5-1.3-.7-.4-.2-.8-.5-1.1-.7-.3-.2-.6-.5-.8-.7-.2-.2-.3-.5-.4-.7 0-.2 0-.5.2-.8.1-.3.4-.6.7-.9.3-.3.6-.6 1-.9.4-.3.7-.6 1.1-1-.1-.5-.2-1-.3-1.4-.1-.5-.2-1-.3-1.4-.1-.5-.2-.9-.3-1.4-.1-.5-.2-.9-.4-1.4-.5-.1-.9-.2-1.4-.4-.5-.1-.9-.3-1.2-.4-.4-.2-.7-.3-.9-.5-.2-.2-.4-.4-.5-.6-.1-.2-.1-.5 0-.8.1-.3.3-.6.5-1s.5-.7.7-1.1l.9-1.2c-.2-.4-.4-.9-.6-1.3-.2-.4-.4-.9-.6-1.3-.2-.4-.4-.9-.6-1.3-.2-.4-.4-.8-.6-1.3-.5 0-1 0-1.4-.1-.4 0-.9-.1-1.3-.1-.4-.1-.7-.2-1-.3-.3-.1-.5-.3-.6-.5-.1-.2-.2-.5-.1-.8 0-.3.1-.7.2-1 .1-.4.3-.8.5-1.2.2-.4.4-.9.6-1.3-.3-.4-.5-.8-.8-1.1-.3-.4-.5-.7-.8-1.1-.3-.4-.5-.7-.8-1.1-.3-.4-.6-.7-.8-1-.2 0-.3.1-.5.1s-.3.1-.5.1-.3.1-.5.1-.3.1-.5.1c-.3 0-.5.1-.8.1h-.7c-.2 0-.4 0-.5-.1-.1 0-.3-.1-.4-.2-.2-.2-.2-.4-.3-.7v-1c0-.4.1-.8.2-1.2.1-.4.2-.9.3-1.3-.3-.3-.6-.6-1-.9-.3-.3-.6-.6-1-.8-.3-.3-.7-.5-1-.8-.3-.3-.7-.5-1-.8-.3.1-.6.2-.8.4-.3.1-.5.2-.8.3-.3.1-.5.2-.8.3-.2-1.1-.4-1.1-.6-1H69c-.1 0-.2 0-.2-.1-.1 0-.1 0-.2-.1-.2-.1-.3-.3-.4-.6-.2-.2-.2-.5-.2-.9V7.1c0-.4 0-.9.1-1.3-.3-.2-.7-.4-1.1-.6-.4-.2-.7-.4-1.1-.6-.4-.2-.7-.4-1.1-.5-.4-.2-.7-.3-1.1-.5l-.9.6c-.3.2-.6.4-.8.5-.3.2-.5.3-.8.4-.3.1-.5.2-.7.2h-.4c-.2-.1-.4-.2-.5-.4-.1-.2-.2-.5-.3-.8-.2-.3-.3-.7-.4-1.1-.1-.4-.1-.8-.2-1.2-.4-.1-.7-.2-1.1-.3-.4-.1-.7-.2-1.1-.3-.4-.1-.8-.2-1.1-.3-.4-.1-.8-.2-1.1-.2-.3.3-.6.6-.9.8-.3.3-.5.5-.8.7-.2.2-.5.4-.7.5l-.6.3h-.4c-.2 0-.4-.1-.5-.3-.2-.2-.3-.4-.4-.7-.1-.3-.3-.6-.4-.9-.1-.3-.2-.7-.4-1.1-.4 0-.8 0-1.1-.1h-3.3c-.2.3-.5.7-.7 1-.2.3-.5.6-.7.9-.2.3-.4.5-.6.7-.2.2-.4.3-.6.3-.2 0-.4 0-.6-.2-.2-.1-.4-.3-.5-.5-.1-.1-.3-.4-.5-.7-.2-.3-.3-.6-.5-.9-.2 0-.4.1-.5.1-.2 0-.4.1-.5.1-.2 0-.4.1-.5.1-.2 0-.4.1-.5.1-.3.1-.5.1-.7.1-.2 0-.4.1-.5.1-.2 0-.4.1-.5.1-.2 0-.3.1-.5.1-.2.4-.3.7-.5 1.1-.2.3-.3.7-.5 1-.2.3-.3.5-.5.7-.2.2-.3.3-.5.4-.2 0-.4 0-.6-.1-.2-.1-.4-.2-.6-.4-.3 0-.5-.2-.7-.4-.2-.2-.4-.4-.6-.7-.3.1-.7.3-1 .4-.3.1-.7.3-1 .4-.3.1-.6.3-.9.4-.3.2-.6.3-.9.5-.1.4-.2.7-.3 1.1-.1.4-.2.7-.3 1-.1.3-.2.6-.4.8-.1.2-.3.4-.4.5h-.8c-.2-.1-.4-.1-.6-.2-.2-.1-.4-.2-.6-.4-.2-.2-.4-.4-.6-.5-.3.1-.6.3-.9.5l-.9.6-.9.6c-.3.2-.5.4-.8.6v.3c4.5.3 8.5 2.3 11.7 5.9 3.5-1.3 7.2-2 11-2 19.3 0 35 17.4 35 38.9s-15.7 38.9-35 38.9-35-17.4-35-38.9c0-6.3 1.4-12.3 3.8-17.6-.4-1.1-.9-2.2-1.5-3.2-1.2-2-2.5-3.8-3.8-5.6l-.3.6c-.1.3-.3.6-.4.9-.1.3-.3.6-.4.9-.1.3-.3.6-.4.9l.3.9c.1.3.2.6.3.8.1.3.1.5.1.7 0 .2 0 .4-.1.6-.1.2-.2.3-.3.4-.2.1-.3.2-.5.3-.2.1-.4.2-.7.2-.2.1-.5.1-.7.2-.1.3-.2.6-.3 1-.1.3-.2.6-.3 1-.1.3-.2.6-.3 1-.1.3-.2.7-.3 1 .1.3.3.5.4.8.1.2.3.5.4.7.1.2.2.5.2.7 0 .2.1.4 0 .6 0 .2-.1.3-.3.5-.1.1-.3.3-.5.4-.2.1-.4.3-.6.4-.2.1-.4.2-.7.3-.1.3-.1.7-.2 1-.1.3-.1.7-.2 1 0 .3-.1.7-.1 1 0 .3-.1.7-.1 1 .2.2.4.4.5.6.2.2.3.4.5.6l.3.6c.1.2.1.4.1.6 0 .2-.1.3-.2.5s-.2.3-.4.5l-.5.5c-.1.4-.4.6-.6.8v4c.2.2.4.3.6.5.2.2.4.3.5.5.2.2.3.4.4.5.1.2.2.4.2.5 0 .2 0 .4-.1.6l-.3.6c-.1.2-.3.4-.5.6-.2.2-.4.4-.5.6 0 .3.1.7.1 1 .1.3.1.7.1 1 .1.3.1.7.2 1 .1.3.1.7.2 1 .2.1.5.2.7.4.2.1.4.3.6.4.2.1.3.3.5.4.1.2.2.3.3.5v.6c0 .2-.1.4-.2.7-.1.2-.2.5-.4.7-.1.3-.3.5-.4.8.1.3.2.7.3 1 .1.3.2.6.3 1 .1.3.2.6.3 1 .1.3.2.6.3 1 .2.1.5.1.7.2.2.1.5.2.7.2.2.1.4.2.5.3.1.1.2.3.3.4.1.2.1.4.1.6 0 .2-.1.5-.1.7-.1.3-.2.5-.3.8l-.3.9c0 .2.2.6.3.9.1.3.3.6.4.9.1.3.3.6.4.9.1.3.3.6.5.9h1.2c.2 0 .3 0 .4.1.1 0 .3.1.4.1.1 0 .2.1.3.2.1.1.2.2.2.3.1.2.1.3.1.6v.8c0 .3-.1.6-.1.9-.1.3-.1.6-.2.9l.6.9c.2.3.4.6.6.8.2.3.4.6.6.8.2.3.4.5.6.8.2 0 .3-.1.5-.1s.3 0 .5-.1h1.1c.1 0 .1 0 .2.1l.1.1.1.1c.1.1.2.3.2.6.1.2.1.5.1.8v1.9c.2.3.5.5.7.8l.7.7.7.7.7.7.6-.3c.2-.1.4-.2.6-.2.2-.1.4-.1.5-.1h.8s.1 0 .1.1c.1.1.3.3.3.5.1.2.2.5.2.8.1.3.1.6.2 1 0 .3.1.7.1 1.1.3.2.5.4.8.6l.9.6c.3.2.5.4.9.6l.9.6c.2-.2.4-.3.6-.5.2-.1.4-.3.6-.4l.6-.3c.2-.1.3-.1.5 0h.3c.2.1.3.3.4.5.1.2.3.5.4.8.1.3.2.6.3 1 .1.4.2.7.3 1.1.3.2.6.3.9.5.3.1.6.3.9.4.3.2.6.3 1 .4.3.1.6.3 1 .4.2-.2.4-.5.6-.7l.6-.6c.2-.2.4-.3.6-.4.2-.1.4-.1.5-.1.2.1.4.2.5.4.2.2.3.4.5.7.2.3.3.6.5 1 .2.3.3.7.5 1.1.2 0 .3.1.5.1s.3.1.5.1.3.1.5.1.4.1.5.1c.2 0 .3.1.5.1s.3.1.5.1.4.1.5.1c.2 0 .4.1.5.1.2-.3.3-.6.5-.9.2-.3.4-.5.5-.8l.5-.5c.2-.1.4-.2.6-.2.2 0 .4.1.6.3.2.2.4.4.6.7.2.3.4.6.7.9.2.3.5.7.7 1h3.3c.4 0 .7 0 1.1-.1.1-.4.2-.7.4-1.1.1-.3.3-.7.4-.9.1-.3.3-.5.4-.7.2-.2.3-.3.5-.3h.4c.2 0 .4.1.6.3.2.1.5.3.7.5.2.2.5.5.8.7.3.3.5.6.8.8.4-.1.8-.1 1.1-.2.4-.1.8-.2 1.1-.3.4-.1.7-.2 1.1-.3.4-.1.7-.2 1.1-.3.1-.4.1-.8.2-1.2.1-.4.1-.8.2-1.1.1-.3.2-.6.3-.8.1-.2.3-.4.5-.5h.5c.2 0 .4.1.7.2.2.1.5.3.8.4.3.2.6.3.9.5.1.1.3.2.4.3-.5 1.5-.7 3-.7 4.6v.9c0 .3 0 .6.1.8.2 2.6 1.1 5.2 2.5 7.7s3.4 4.5 5.9 6.2c3.4 2.3 7.4 4.1 11.9 5.2 4.6 1.2 9.4 1.7 14.4 1.7.9 0 1.8 0 2.7-.1.9 0 1.8-.1 2.7-.2 8.8-.7 17.1-3 24.9-6.9 6.7-3.4 11.4-8 14.1-13.6.6 1.7 1.5 3.3 2.8 4.7 2.3 2.5 5.2 4.4 8.8 5.6 1.3.4 2.7.8 4.1 1.1 1.4.3 2.9.4 4.3.5.3.1.7.1 1 .1h1.1c2.3 0 4.6-.2 6.8-.7 2.2-.4 4.4-1.1 6.4-2 3.3-1.5 5.9-3.6 7.8-6 .5 1.1 1.2 2.2 2 3.2 1.5 1.9 3.3 3.2 5.3 4 2 .8 4.1 1.2 6.2 1.3h.9c.3 0 .5 0 .8-.1 2.2-.2 4.4-.8 6.5-1.7 2.1-.9 4-2.2 5.6-3.7.8 1.9 2.2 3.2 3.9 4.1 1.7.8 3.6 1.3 5.5 1.3h.5c5.9 0 10.4-1.6 13.5-4.8.6-.6 1.1-1.2 1.7-1.9.3 1 .7 1.9 1.3 2.7.9 1.3 2.1 2.2 3.6 2.8 1.5.6 3 1 4.5 1.1h2c5.7 0 10.1-1.6 13.1-4.9 3-3.3 5.6-7.2 7.8-11.9l-4.1-1.5m-105.1-.6c.2-.7.4-1.5.7-2.2.9-2.1 2.1-4.1 3.8-5.9 1.6-1.8 3.6-2.6 5.9-2.6 1 .1 1.8.3 2.4.7.6.4.8 1.2.8 2.2-.1 2.5-1.1 4.5-3 5.9-1.9 1.4-4.1 2.4-6.4 3-.8.2-1.6.4-2.4.5-.8.1-1.6.2-2.3.3.2-.5.3-1.2.5-1.9m54.3-2.8c-.4 1.4-.9 3.1-1.6 4.9-.3.7-.6 1.4-1 2.3-.4.9-.8 1.7-1.4 2.7-1 1.8-2.2 3.4-3.5 4.9-1.4 1.5-3 2.2-4.7 2.2-.8 0-1.3-.3-1.7-.9-.3-.6-.5-1.4-.5-2.3v-1.2c0-.4.1-.8.2-1.2.1-.5.2-1 .3-1.4.1-.5.2-.9.4-1.3.1-.5.3-1 .4-1.5.1-.4.3-.7.3-.9.2-.7.6-1.5 1.1-2.4.5-.9 1.1-1.9 1.8-2.9.9-1.4 2-2.7 3.1-3.9 1.2-1.2 2.3-2.1 3.5-2.6l.9-.3c.3-.1.6-.1.9-.1.9 0 1.4.2 1.6.6.2.4.3 1 .3 1.7.1 1-.1 2.2-.4 3.6"/></g></svg>