<?xml version="1.0" encoding="utf-8"?>
<!-- Generator: Adobe Illustrator 18.1.1, SVG Export Plug-In . SVG Version: 6.00 Build 0)  -->
<svg version="1.1" id="Layer_1" xmlns="http://www.w3.org/2000/svg" xmlns:xlink="http://www.w3.org/1999/xlink" x="0px" y="0px"
	 viewBox="0 0 269.5 128" enable-background="new 0 0 269.5 128" xml:space="preserve">
<g>
	<path fill="#F26722" d="M152.2,68.9c0-3.4,2.6-5.9,5.9-5.9c3.3,0,5.9,2.5,5.9,5.9c0,3.4-2.6,5.9-5.9,5.9
		C154.8,74.8,152.2,72.3,152.2,68.9 M162.1,68.9c0-2.4-1.7-4.3-4.1-4.3c-2.4,0-4.1,1.8-4.1,4.3c0,2.4,1.7,4.3,4.1,4.3
		C160.5,73.2,162.1,71.3,162.1,68.9"/>
	<path fill="#F26722" d="M178,74.6h-2.1l-2-2.8c-0.3,0-0.5,0-0.8,0H172v2.7h-1.8V63.2h2.9c3.2,0,4.9,1.7,4.9,4.4
		c0,1.8-0.8,3.1-2.3,3.8L178,74.6 M173,70.3c2.2,0,3.1-1.1,3.1-2.8c0-1.7-0.9-2.8-3.1-2.8H172v5.6H173z"/>
	<path fill="#F26722" d="M185,74.6h-1.8l5-11.7h0.1l5.1,11.7h-1.9l-0.7-1.6h-5.1L185,74.6 M188.3,66.9l-1.9,4.5h3.8
		C190.2,71.4,188.3,66.9,188.3,66.9"/>
	<polygon fill="#F26722" points="200.9,67.1 200.9,74.6 199.2,74.6 199.2,63 199.4,63 206.7,70.7 206.7,63.2 208.4,63.2 208.4,74.8 
		208.3,74.8 	"/>
	<path fill="#F26722" d="M214.6,68.9c0-3.4,2.7-5.9,6-5.9c2.1,0,3.7,0.8,4.7,2.3l-1.4,1c-0.7-1-1.7-1.7-3.4-1.7c-2.3,0-4,1.8-4,4.3
		c0,2.4,1.7,4.3,4,4.3c2,0,3.1-0.9,3.5-2h-3.2v-1.6h5.3c-0.1,3.3-2.2,5.3-5.5,5.3C217.2,74.8,214.6,72.3,214.6,68.9"/>
	<polygon fill="#F26722" points="232.2,63.2 239.5,63.2 239.5,64.8 234,64.8 234,69.5 238.9,69.5 238.9,71.1 234,71.1 234,73 
		239.8,73 239.8,74.6 232.2,74.6 	"/>
	<path fill="#F26722" d="M76.4,58.5c-0.4,0-0.8,0-1.1,0.1c-0.7,0.1-1.4,0.2-2.1,0.1c-0.3,0-0.7-0.1-1-0.2c-1.5-0.7-2.1-2.3-2.6-3.8
		c-0.6-1.8-1.3-3.6-2.9-4.6c-3.5-2.3-8.8-3-12.2-0.2c-1.2,1-2.2,1.6-3.7,1.9c-1.3,0.3-2.6-1.1-3.3-2.1c-0.7-1-1-2.5-1.5-3.7
		c-0.4-1.2-1-2.2-1.7-3.1c-1-1.3-2.1-2.4-3.2-3.6c-0.1-0.1-0.1-0.1-0.2-0.2c-1.1-1.1-2.5-2-3.5-3.3C36.7,35,36.4,34,36,33.2
		c-1.1-2.3-2-4.8-2.9-7.2c-0.4-0.9-0.7-1.9-1.2-2.8c-1.2-2.3-5-9.3-13-9.4c-1,0-2-0.1-3-0.2c-1.4-0.1-2.9-0.1-4.2-0.6
		c-1.2-0.5-2.3-1.4-3.7-1.7c-1.3-0.2-2.1,1.3-2.6,2.2c-0.9,1.6-0.6,3.2-0.1,4.9c0.7,2.5,1.8,4.6,3.4,6.7c1.4,1.8,2.7,3.7,3.9,5.6
		c0.2,0.4,0.4,0.8,0.6,1.1c0.2,0.4,0.4,0.9,0.6,1.3c0,0,0,0,0,0c0.6,1.3,1.1,2.7,1.6,4.1c0.6,1.8,1.1,3.6,1.4,5.5
		c0.2,1.1,0.3,2.1,0.4,3.2c0,0.5,0.1,1.1,0.1,1.6c0.3,4.3,1.2,8.5,3.5,12.3c0.5,0.9,1,1.8,1.2,2.8c0.2,0.8,0.2,1.6,0.5,2.4
		c0.3,1,1.1,1.8,1.4,2.9c0.3,1.3-0.9,2.8-2.3,2.5C19.7,70,17.8,69.5,16,69c-0.4-0.1-0.8-0.2-1.1-0.2c1.3,2.7,2.8,5.2,4.7,7.5
		c0.8,0.1,1.7,0.2,2.6,0.1c1.4-0.2,2.9-0.5,4.3-0.7c0.9-0.1,1.8-0.4,2.6-0.1c0.7,0.2,1.3,0.7,1.8,1.1c1.2,1,2.4,1.9,3.6,2.8
		c0.5,0.3,1.1,0.7,1.7,0.9c1.3,0.3,2.7,0.2,3.9,0.7c1.4,0.6,2,2,2.3,3.4c0.4,1.8,1.8,3.3,3.2,4.5c0.4,0.3,1.5,1,3.1,1.8
		c4.9-0.9,9.4-2.9,13.4-5.8c-1.5-0.8-2.9-1.6-4.4-2.3c-0.9-0.4-1.7-0.9-2.6-1.2c-2.3-0.9-2.4-1.4-2.2-2c0.2-0.6,0.6-0.7,1.4-1
		c0.8-0.3,9.3-2.7,13.5-8.2c1-1.3,1.7-2.6,3.5-2.2c1.1,0.2,2.2,0.7,3.2,1.2c1.4-3.4,2.5-7,3-10.8C77.1,58.4,76.7,58.4,76.4,58.5
		 M21.3,21.1c-0.5,1-1.8,1.2-3,0.6c-1.2-0.6-1.7-1.9-1.3-2.8c0.5-0.9,1.9-1.2,3-0.6C21.3,18.8,21.8,20.1,21.3,21.1"/>
	<path fill="#F26722" d="M264.9,99.9c-0.6,1.3-1.3,2.6-2,3.8c-0.7,1.2-1.6,2.4-2.7,3.5c-0.8,0.7-1.6,1.3-2.3,1.7
		c-0.7,0.4-1.3,0.6-1.8,0.6c-0.7,0.1-1.2,0-1.5-0.2c-0.3-0.2-0.5-0.5-0.5-0.9c0-0.3,0.1-0.7,0.2-1.1c0.1-0.5,0.3-1,0.6-1.5
		c2.1-6.4,4.3-12.7,6.5-19.1c2.2-6.4,4.4-12.7,6.6-19.1h-18.1C248,73.3,246,79.1,244,85c-1.7,5-3.4,10.1-5.2,15.1
		c0,0.1,0,0.1-0.1,0.2c0,0.1,0,0.2-0.1,0.3c0,0.1,0,0.1-0.1,0.2c0,0.1-0.1,0.2-0.1,0.3c-0.1,0.1-0.1,0.3-0.2,0.4
		c-0.2,0.4-0.5,1-0.9,1.6c-0.4,0.7-0.9,1.4-1.4,2c-0.5,0.7-1.1,1.4-1.8,2.1c-0.7,0.7-1.3,1.2-2,1.7c-0.4,0.2-0.7,0.4-1,0.5
		c-0.3,0.1-0.7,0.2-1.1,0.2c-0.2,0.1-0.4,0.1-0.5,0c-0.1,0-0.3-0.1-0.4-0.1c-0.2-0.1-0.4-0.2-0.5-0.5c-0.1-0.2-0.1-0.5-0.1-0.7v-0.4
		c0-0.1,0-0.2,0.1-0.4c0-0.2,0-0.4,0.1-0.6c0.1-0.2,0.1-0.4,0.2-0.5c0-0.2,0-0.3,0.1-0.4c0.1-0.1,0.1-0.2,0.1-0.2
		c0.7-2.3,1.5-4.5,2.2-6.8c0.8-2.2,1.5-4.4,2.3-6.6c0.4-1.1,0.7-2.2,1.1-3.3c0.4-1.1,0.8-2.2,1.1-3.3H218l-0.9,2.7
		c-1.5-1.2-3.1-2.1-4.9-2.7c-1.8-0.6-3.7-0.9-5.7-0.9h-0.8c-0.3,0-0.5,0-0.8,0.1c-2.4,0.1-4.8,0.6-7.2,1.5c-2.3,0.9-4.4,2-6.1,3.4
		c-2.3,1.8-4.2,4-5.7,6.6c-1.3,2.2-2,4.5-2.2,6.9c-1.5,2.4-3.3,4.6-5.5,6.3c-3.1,2.6-7,3.9-11.5,3.9c-2.3,0-4.1-0.6-5.5-1.8
		c-1.4-1.2-2.2-2.9-2.5-5.1c1.3,0.1,2.8,0,4.6-0.2c1.8-0.2,3.6-0.5,5.5-1c3.4-0.9,6.6-2.2,9.4-4.1c2.9-1.9,4.3-4.5,4.1-7.8
		c-0.1-2.1-0.9-3.7-2.4-4.9c-1.6-1.2-3.2-2.1-5-2.6c-0.2-0.1-0.3-0.1-0.5-0.1c-0.2,0-0.3-0.1-0.5-0.1c-1-0.3-2.2-0.5-3.4-0.6
		c-1.2-0.1-2.5-0.2-3.8-0.2c-0.9,0-1.7,0-2.6,0.1c-0.9,0.1-1.8,0.2-2.7,0.3c-4.2,0.5-8.2,1.9-11.9,3.9c-2.2,1.2-3.9,2.6-5.2,4.4
		c-0.5-4.3-2.1-8.1-4.9-11.2c-3.3-3.7-7-7.1-11-10c-0.6-0.3-1.1-0.7-1.7-1.1c-0.5-0.4-1.1-0.8-1.5-1.1c-0.5-0.3-1-0.7-1.6-1.1
		c-0.6-0.4-1.2-0.9-1.9-1.3c-1.3-1.1-2.6-2.3-3.7-3.6c-1.2-1.3-1.8-2.8-1.9-4.3c0-0.3,0-0.6,0.1-0.9c0.1-0.3,0.2-0.6,0.3-0.9
		c0.6-1.9,1.9-3.3,3.8-4.2c1.9-0.9,3.8-1.3,5.9-1.3h0.4c2.4,0.1,4.6,0.7,6.6,1.8c2,1.1,3,2.7,3,4.8c0,0.3,0,0.5,0,0.8
		c-0.1,0.3-0.1,0.6-0.2,0.9c-0.3,1-0.5,1.7-0.9,2.2c-0.3,0.5-0.7,0.9-1.2,1.2c-0.3,0.3-0.7,0.5-1.1,0.7c-0.4,0.2-0.8,0.5-1.3,0.9
		c0.3,0.2,0.6,0.3,0.9,0.5c0.2,0.2,0.5,0.3,0.9,0.5c0.6,0.3,1.2,0.6,1.7,0.9c0.6,0.3,1.1,0.5,1.7,0.7c0.5,0.1,1,0.2,1.5,0.3
		c0.5,0.1,1.1,0.1,1.7,0.1h0.9c2.1-0.2,4-0.7,5.8-1.7c1.8-1,3-2.5,3.5-4.6c0.2-0.6,0.3-1.1,0.3-1.6c0-0.5,0.1-0.9,0.1-1.4
		c0.1-3.2-1.1-5.8-3.6-7.6c-2.5-1.9-5.2-3.3-8.2-4.3c-0.6-0.2-1.2-0.3-1.7-0.5c-0.6-0.2-1.2-0.3-1.7-0.4c-1.3-0.2-2.8-0.4-4.4-0.5
		c-1.6-0.1-3.2-0.2-4.9-0.3c-1.3,0-2.6,0-4,0.1c-1.3,0.1-2.7,0.2-4.1,0.4c-5.6,0.7-10.9,2.4-16,4.8c-1,0.5-1.9,1-2.7,1.6
		c0.2,0.2,0.4,0.3,0.5,0.5c0.5,0.5,1.1,0.9,1.6,1.4c-0.1,0.7-0.2,1.4-0.4,2.1c-0.1,0.7-0.3,1.4-0.4,2c-0.1,0.7-0.3,1.4-0.5,2
		c-0.2,0.7-0.3,1.3-0.5,2c-0.7,0.2-1.3,0.4-2,0.6c-0.6,0.2-1.2,0.4-1.8,0.6c-0.5,0.2-1,0.5-1.3,0.7c-0.4,0.3-0.6,0.6-0.7,0.9
		c-0.1,0.3-0.1,0.7,0,1.2c0.1,0.4,0.4,0.9,0.6,1.4c0.3,0.5,0.7,1,1.1,1.6c0.4,0.5,0.8,1.1,1.3,1.7c-0.3,0.6-0.5,1.3-0.8,1.9
		c-0.3,0.6-0.5,1.2-0.8,1.9c-0.3,0.6-0.6,1.2-0.9,1.8c-0.3,0.5-0.5,1.1-0.8,1.6c0.5,0.7,0.9,1.3,1.5,1.9c2.9,3.1,6.1,6,9.5,8.7
		c0.1,0,0.1,0,0.2,0.1c0,0,0.1,0.1,0.2,0.2c0.1,0.1,0.2,0.1,0.2,0.2c0,0,0.1,0.1,0.2,0.1c2.9,2.3,5.6,4.7,8,7.2
		c2.4,2.5,3.7,5.4,3.7,8.7c0,0.6,0,1.1-0.1,1.7c-0.1,0.5-0.2,1.1-0.4,1.8c-1,3.8-3.1,6.7-6.3,8.7c-2.1,1-4.4,1.6-6.8,1.7h-0.7
		c-3.1,0-5.9-0.8-8.4-2.5c-2.5-1.6-3.8-4.2-3.8-7.5c0-0.4,0-0.9,0.1-1.4c0.1-0.5,0.2-1,0.2-1.5c0.1-0.8,0.5-1.5,1.1-2.2
		c0.6-0.7,1.2-1.3,1.8-1.8c0.1-0.1,0.2-0.1,0.3-0.2c0.1-0.1,0.2-0.1,0.2-0.2c0.3-0.2,0.6-0.4,0.8-0.6c0.2-0.1,0.3-0.2,0.4-0.3
		c0.1-0.1,0.1-0.1,0.1-0.2c0-0.1-0.1-0.3-0.2-0.5c-0.2-0.2-0.4-0.5-0.8-0.9c-0.8-1-1.8-1.7-3-2.1c-1.2-0.4-2.4-0.6-3.7-0.6
		c-0.5,0-1,0-1.5,0c-0.5,0-1,0.1-1.5,0.2c-2.8,0.7-4.9,2-6.3,3.9c-1.4,2-2.1,4.1-2.1,6.4v0.7c0,0.2,0,0.4,0.1,0.6
		c0.2,2,0.8,3.8,1.9,5.7c1.1,1.8,2.5,3.4,4.4,4.6c2.5,1.7,5.5,3,8.8,3.9c2.5,0.6,5.1,1,7.7,1.2c-3.3,0.2-6.5,0.1-9.6-0.3
		c-4.4-0.6-8.5-1.8-12-3.7c-2.7-1.4-5-3.4-6.8-5.8c-1.7-2.3-2.9-4.9-3.6-7.5c-0.2-0.4-0.3-0.8-0.3-1.3L67,105
		c-0.2-1.9-0.2-3.7,0.2-5.5c0.1-0.4,0.2-0.9,0.3-1.3c0,0,0,0,0,0c0.1-0.4,0.3-0.9,0.4-1.3c0.2-0.6,0.5-1.2,0.8-1.8
		c0.1-0.2,0.2-0.3,0.3-0.4c0.2-0.4,0.5-0.8,0.8-1.3c0.2-0.2,0.3-0.5,0.5-0.7c1.5-1.9,3.6-3.4,6.2-4.5c0.1,0,0.1-0.1,0.2-0.1
		c0,0,0.1,0,0.2,0c0.1,0,0.2-0.1,0.3-0.1c0.7-0.3,1.4-0.5,2.2-0.6c0.6-0.1,1.3-0.2,1.9-0.3c0.2,0,0.4,0,0.6,0
		c0.2-0.2,0.4-0.5,0.5-0.7c0.3-0.4,0.6-0.7,0.8-1.1c0.3-0.4,0.5-0.7,0.8-1.1c-0.2-0.4-0.4-0.9-0.6-1.3c-0.2-0.4-0.4-0.8-0.5-1.2
		c-0.1-0.4-0.2-0.7-0.2-1c0-0.3,0-0.6,0.1-0.8c0.1-0.2,0.3-0.4,0.6-0.5c0.3-0.1,0.6-0.2,1-0.3c0.4-0.1,0.8-0.1,1.3-0.1
		c0.5,0,0.9,0,1.4-0.1c0.2-0.4,0.4-0.8,0.6-1.3c0.2-0.4,0.4-0.9,0.6-1.3c0.2-0.4,0.4-0.9,0.6-1.3c0.2-0.4,0.4-0.9,0.6-1.3
		c-0.3-0.4-0.6-0.8-0.9-1.2c-0.3-0.4-0.5-0.8-0.7-1.1c-0.2-0.3-0.4-0.7-0.5-1c-0.1-0.3-0.1-0.6,0-0.8c0.1-0.2,0.3-0.4,0.5-0.6
		c0.3-0.2,0.6-0.4,0.9-0.5c0.4-0.2,0.8-0.3,1.2-0.4c0.4-0.1,0.9-0.3,1.4-0.4c0.1-0.5,0.2-0.9,0.4-1.4c0.1-0.5,0.2-0.9,0.3-1.4
		c0.1-0.5,0.2-1,0.3-1.4c0.1-0.5,0.2-1,0.3-1.4c-0.4-0.3-0.8-0.6-1.1-1c-0.4-0.3-0.7-0.6-1-0.9c-0.3-0.3-0.5-0.6-0.7-0.9
		c-0.2-0.3-0.2-0.6-0.2-0.8c0-0.3,0.2-0.5,0.4-0.7c0.2-0.2,0.5-0.5,0.8-0.7c0.3-0.2,0.7-0.5,1.1-0.7c0.4-0.2,0.8-0.5,1.3-0.7
		c0-0.2,0-0.5,0-0.7c0-0.2,0-0.5,0-0.7c0-0.3,0-0.5,0-0.7c0-0.2,0-0.5,0-0.7c0-0.2,0-0.5,0-0.7c0-0.3,0-0.5,0-0.7c0-0.3,0-0.5,0-0.7
		c0-0.2,0-0.5,0-0.7c-0.4-0.2-0.9-0.5-1.3-0.7c-0.4-0.2-0.8-0.5-1.1-0.7c-0.3-0.2-0.6-0.5-0.8-0.7c-0.2-0.2-0.3-0.5-0.4-0.7
		c0-0.2,0-0.5,0.2-0.8c0.1-0.3,0.4-0.6,0.7-0.9c0.3-0.3,0.6-0.6,1-0.9c0.4-0.3,0.7-0.6,1.1-1c-0.1-0.5-0.2-1-0.3-1.4
		c-0.1-0.5-0.2-1-0.3-1.4c-0.1-0.5-0.2-0.9-0.3-1.4c-0.1-0.5-0.2-0.9-0.4-1.4c-0.5-0.1-0.9-0.2-1.4-0.4c-0.5-0.1-0.9-0.3-1.2-0.4
		c-0.4-0.2-0.7-0.3-0.9-0.5c-0.2-0.2-0.4-0.4-0.5-0.6c-0.1-0.2-0.1-0.5,0-0.8c0.1-0.3,0.3-0.6,0.5-1c0.2-0.4,0.5-0.7,0.7-1.1
		c0.3-0.4,0.6-0.8,0.9-1.2c-0.2-0.4-0.4-0.9-0.6-1.3c-0.2-0.4-0.4-0.9-0.6-1.3c-0.2-0.4-0.4-0.9-0.6-1.3c-0.2-0.4-0.4-0.8-0.6-1.3
		c-0.5,0-1,0-1.4-0.1c-0.4,0-0.9-0.1-1.3-0.1c-0.4-0.1-0.7-0.2-1-0.3c-0.3-0.1-0.5-0.3-0.6-0.5c-0.1-0.2-0.2-0.5-0.1-0.8
		c0-0.3,0.1-0.7,0.2-1c0.1-0.4,0.3-0.8,0.5-1.2c0.2-0.4,0.4-0.9,0.6-1.3c-0.3-0.4-0.5-0.8-0.8-1.1c-0.3-0.4-0.5-0.7-0.8-1.1
		c-0.3-0.4-0.5-0.7-0.8-1.1c-0.3-0.4-0.6-0.7-0.8-1c-0.2,0-0.3,0.1-0.5,0.1c-0.2,0-0.3,0.1-0.5,0.1c-0.2,0-0.3,0.1-0.5,0.1
		c-0.2,0-0.3,0.1-0.5,0.1c-0.3,0-0.5,0.1-0.8,0.1c-0.2,0-0.5,0-0.7,0c-0.2,0-0.4,0-0.5-0.1c-0.1,0-0.3-0.1-0.4-0.2
		c-0.2-0.2-0.2-0.4-0.3-0.7c0-0.3,0-0.6,0-1c0-0.4,0.1-0.8,0.2-1.2c0.1-0.4,0.2-0.9,0.3-1.3c-0.3-0.3-0.6-0.6-1-0.9
		c-0.3-0.3-0.6-0.6-1-0.8c-0.3-0.3-0.7-0.5-1-0.8c-0.3-0.3-0.7-0.5-1-0.8c-0.3,0.1-0.6,0.2-0.8,0.4c-0.3,0.1-0.5,0.2-0.8,0.3
		c-0.3,0.1-0.5,0.2-0.8,0.3C70,9.9,69.8,9.9,69.6,10c-0.1,0-0.2,0-0.3,0c-0.1,0-0.2,0-0.3,0c-0.1,0-0.2,0-0.2-0.1
		c-0.1,0-0.1,0-0.2-0.1c-0.2-0.1-0.3-0.3-0.4-0.6C68,9,68,8.7,68,8.3c0-0.4,0-0.8,0-1.2c0-0.4,0-0.9,0.1-1.3
		c-0.3-0.2-0.7-0.4-1.1-0.6c-0.4-0.2-0.7-0.4-1.1-0.6c-0.4-0.2-0.7-0.4-1.1-0.5c-0.4-0.2-0.7-0.3-1.1-0.5c-0.3,0.2-0.6,0.4-0.9,0.6
		c-0.3,0.2-0.6,0.4-0.8,0.5c-0.3,0.2-0.5,0.3-0.8,0.4c-0.3,0.1-0.5,0.2-0.7,0.2c0,0-0.1,0-0.1,0h-0.1c-0.1,0-0.1,0-0.1,0
		c0,0-0.1,0-0.1,0c-0.2-0.1-0.4-0.2-0.5-0.4c-0.1-0.2-0.2-0.5-0.3-0.8C59.1,3.8,59,3.4,58.9,3c-0.1-0.4-0.1-0.8-0.2-1.2
		c-0.4-0.1-0.7-0.2-1.1-0.3c-0.4-0.1-0.7-0.2-1.1-0.3c-0.4-0.1-0.8-0.2-1.1-0.3c-0.4-0.1-0.8-0.2-1.1-0.2C54,1,53.7,1.3,53.4,1.5
		c-0.3,0.3-0.5,0.5-0.8,0.7c-0.2,0.2-0.5,0.4-0.7,0.5c-0.2,0.1-0.4,0.2-0.6,0.3c0,0-0.1,0-0.1,0c0,0,0,0-0.1,0h-0.1c0,0,0,0-0.1,0
		c-0.2,0-0.4-0.1-0.5-0.3c-0.2-0.2-0.3-0.4-0.4-0.7c-0.1-0.3-0.3-0.6-0.4-0.9c-0.1-0.3-0.2-0.7-0.4-1.1c-0.4,0-0.8,0-1.1-0.1
		c-0.4,0-0.7,0-1.1,0c-0.4,0-0.7,0-1.1,0c-0.4,0-0.7,0-1.1,0c-0.2,0.3-0.5,0.7-0.7,1c-0.2,0.3-0.5,0.6-0.7,0.9
		c-0.2,0.3-0.4,0.5-0.6,0.7c-0.2,0.2-0.4,0.3-0.6,0.3c0,0,0,0,0,0h0h0c0,0,0,0,0,0c-0.2,0-0.4,0-0.6-0.2c-0.2-0.1-0.4-0.3-0.5-0.5
		C41,2,40.8,1.7,40.6,1.4c-0.2-0.3-0.3-0.6-0.5-0.9c-0.2,0-0.4,0.1-0.5,0.1c-0.2,0-0.4,0.1-0.5,0.1c-0.2,0-0.4,0.1-0.5,0.1
		c-0.2,0-0.4,0.1-0.5,0.1C37.8,1,37.6,1,37.4,1c-0.2,0-0.4,0.1-0.5,0.1c-0.2,0-0.4,0.1-0.5,0.1c-0.2,0-0.3,0.1-0.5,0.1
		c-0.2,0.4-0.3,0.7-0.5,1.1c-0.2,0.3-0.3,0.7-0.5,1c-0.2,0.3-0.3,0.5-0.5,0.7c-0.2,0.2-0.3,0.3-0.5,0.4c0,0,0,0,0,0h0h0c0,0,0,0,0,0
		c-0.2,0-0.4,0-0.6-0.1c-0.2-0.1-0.4-0.2-0.6-0.4C32.4,4,32.2,3.8,32,3.6c-0.2-0.2-0.4-0.4-0.6-0.7c-0.3,0.1-0.7,0.3-1,0.4
		c-0.3,0.1-0.7,0.3-1,0.4c-0.3,0.1-0.6,0.3-0.9,0.4c-0.3,0.2-0.6,0.3-0.9,0.5c-0.1,0.4-0.2,0.7-0.3,1.1c-0.1,0.4-0.2,0.7-0.3,1
		c-0.1,0.3-0.2,0.6-0.4,0.8c-0.1,0.2-0.3,0.4-0.4,0.5c0,0,0,0-0.1,0c0,0,0,0-0.1,0c0,0,0,0-0.1,0c0,0,0,0,0,0c-0.2,0-0.3,0-0.5,0
		c-0.2-0.1-0.4-0.1-0.6-0.2c-0.2-0.1-0.4-0.2-0.6-0.4C24,7.2,23.8,7,23.6,6.9C23.3,7,23,7.2,22.7,7.4c-0.3,0.2-0.6,0.4-0.9,0.6
		c-0.3,0.2-0.6,0.4-0.9,0.6c-0.3,0.2-0.5,0.4-0.8,0.6c0,0.1,0,0.2,0,0.3c4.5,0.3,8.5,2.3,11.7,5.9c3.5-1.3,7.2-2,11-2
		c19.3,0,35,17.4,35,38.9c0,21.5-15.7,38.9-35,38.9c-19.3,0-35-17.4-35-38.9c0-6.3,1.4-12.3,3.8-17.6c-0.4-1.1-0.9-2.2-1.5-3.2
		c-1.2-2-2.5-3.8-3.8-5.6c-0.1,0.2-0.2,0.4-0.3,0.6c-0.1,0.3-0.3,0.6-0.4,0.9c-0.1,0.3-0.3,0.6-0.4,0.9c-0.1,0.3-0.3,0.6-0.4,0.9
		c0.1,0.3,0.2,0.6,0.3,0.9c0.1,0.3,0.2,0.6,0.3,0.8c0.1,0.3,0.1,0.5,0.1,0.7c0,0.2,0,0.4-0.1,0.6c-0.1,0.2-0.2,0.3-0.3,0.4
		c-0.2,0.1-0.3,0.2-0.5,0.3c-0.2,0.1-0.4,0.2-0.7,0.2c-0.2,0.1-0.5,0.1-0.7,0.2c-0.1,0.3-0.2,0.6-0.3,1c-0.1,0.3-0.2,0.6-0.3,1
		c-0.1,0.3-0.2,0.6-0.3,1c-0.1,0.3-0.2,0.7-0.3,1c0.1,0.3,0.3,0.5,0.4,0.8c0.1,0.2,0.3,0.5,0.4,0.7c0.1,0.2,0.2,0.5,0.2,0.7
		c0,0.2,0.1,0.4,0,0.6c0,0.2-0.1,0.3-0.3,0.5c-0.1,0.1-0.3,0.3-0.5,0.4c-0.2,0.1-0.4,0.3-0.6,0.4c-0.2,0.1-0.4,0.2-0.7,0.3
		c-0.1,0.3-0.1,0.7-0.2,1c-0.1,0.3-0.1,0.7-0.2,1c0,0.3-0.1,0.7-0.1,1c0,0.3-0.1,0.7-0.1,1c0.2,0.2,0.4,0.4,0.5,0.6
		c0.2,0.2,0.3,0.4,0.5,0.6c0.1,0.2,0.2,0.4,0.3,0.6c0.1,0.2,0.1,0.4,0.1,0.6c0,0.2-0.1,0.3-0.2,0.5c-0.1,0.2-0.2,0.3-0.4,0.5
		c-0.2,0.2-0.3,0.3-0.5,0.5C0.5,50,0.2,50.2,0,50.4c0,0.2,0,0.3,0,0.5c0,0.2,0,0.3,0,0.5c0,0.2,0,0.3,0,0.5v0.5v0.5
		c0,0.2,0,0.3,0,0.5c0,0.2,0,0.3,0,0.5c0,0.2,0,0.3,0,0.5c0.2,0.2,0.4,0.3,0.6,0.5c0.2,0.2,0.4,0.3,0.5,0.5c0.2,0.2,0.3,0.4,0.4,0.5
		c0.1,0.2,0.2,0.4,0.2,0.5c0,0.2,0,0.4-0.1,0.6c-0.1,0.2-0.2,0.4-0.3,0.6c-0.1,0.2-0.3,0.4-0.5,0.6c-0.2,0.2-0.4,0.4-0.5,0.6
		c0,0.3,0.1,0.7,0.1,1c0.1,0.3,0.1,0.7,0.1,1c0.1,0.3,0.1,0.7,0.2,1c0.1,0.3,0.1,0.7,0.2,1c0.2,0.1,0.5,0.2,0.7,0.4
		c0.2,0.1,0.4,0.3,0.6,0.4c0.2,0.1,0.3,0.3,0.5,0.4c0.1,0.2,0.2,0.3,0.3,0.5c0,0.2,0,0.4,0,0.6c0,0.2-0.1,0.4-0.2,0.7
		c-0.1,0.2-0.2,0.5-0.4,0.7c-0.1,0.3-0.3,0.5-0.4,0.8c0.1,0.3,0.2,0.7,0.3,1c0.1,0.3,0.2,0.6,0.3,1c0.1,0.3,0.2,0.6,0.3,1
		c0.1,0.3,0.2,0.6,0.3,1c0.2,0.1,0.5,0.1,0.7,0.2c0.2,0.1,0.5,0.2,0.7,0.2c0.2,0.1,0.4,0.2,0.5,0.3c0.1,0.1,0.2,0.3,0.3,0.4
		c0.1,0.2,0.1,0.4,0.1,0.6c0,0.2-0.1,0.5-0.1,0.7c-0.1,0.3-0.2,0.5-0.3,0.8c-0.1,0.3-0.2,0.6-0.3,0.9C4.8,75.6,5,76,5.1,76.3
		c0.1,0.3,0.3,0.6,0.4,0.9c0.1,0.3,0.3,0.6,0.4,0.9c0.1,0.3,0.3,0.6,0.5,0.9c0.1,0,0.2,0,0.3,0c0.1,0,0.2,0,0.3,0c0.1,0,0.2,0,0.3,0
		c0.1,0,0.2,0,0.3,0c0.2,0,0.3,0,0.4,0.1c0.1,0,0.3,0.1,0.4,0.1c0.1,0,0.2,0.1,0.3,0.2c0.1,0.1,0.2,0.2,0.2,0.3C9,79.9,9,80,9,80.3
		c0,0.2,0,0.5,0,0.8c0,0.3-0.1,0.6-0.1,0.9c-0.1,0.3-0.1,0.6-0.2,0.9c0.2,0.3,0.4,0.6,0.6,0.9c0.2,0.3,0.4,0.6,0.6,0.8
		c0.2,0.3,0.4,0.6,0.6,0.8c0.2,0.3,0.4,0.5,0.6,0.8c0.2,0,0.3-0.1,0.5-0.1c0.2,0,0.3,0,0.5-0.1c0.2,0,0.3,0,0.5,0c0.1,0,0.3,0,0.4,0
		c0.1,0,0.1,0,0.2,0c0.1,0,0.1,0,0.2,0.1c0,0,0.1,0.1,0.1,0.1c0,0,0.1,0.1,0.1,0.1c0.1,0.1,0.2,0.3,0.2,0.6c0.1,0.2,0.1,0.5,0.1,0.8
		c0,0.3,0,0.6,0,0.9c0,0.3,0,0.7,0,1c0.2,0.3,0.5,0.5,0.7,0.8c0.2,0.2,0.5,0.5,0.7,0.7c0.2,0.2,0.5,0.5,0.7,0.7
		c0.2,0.2,0.5,0.5,0.7,0.7c0.2-0.1,0.4-0.2,0.6-0.3c0.2-0.1,0.4-0.2,0.6-0.2c0.2-0.1,0.4-0.1,0.5-0.1c0.2,0,0.3,0,0.5,0
		c0,0,0.1,0,0.1,0c0,0,0.1,0,0.1,0c0,0,0.1,0,0.1,0c0,0,0.1,0,0.1,0.1c0.1,0.1,0.3,0.3,0.3,0.5c0.1,0.2,0.2,0.5,0.2,0.8
		c0.1,0.3,0.1,0.6,0.2,1c0,0.3,0.1,0.7,0.1,1.1c0.3,0.2,0.5,0.4,0.8,0.6c0.3,0.2,0.6,0.4,0.9,0.6c0.3,0.2,0.5,0.4,0.9,0.6
		c0.3,0.2,0.6,0.4,0.9,0.6c0.2-0.2,0.4-0.3,0.6-0.5c0.2-0.1,0.4-0.3,0.6-0.4c0.2-0.1,0.4-0.2,0.6-0.3c0.2-0.1,0.3-0.1,0.5,0
		c0,0,0,0,0,0c0,0,0,0,0.1,0c0,0,0,0,0.1,0c0,0,0,0,0.1,0c0.2,0.1,0.3,0.3,0.4,0.5c0.1,0.2,0.3,0.5,0.4,0.8c0.1,0.3,0.2,0.6,0.3,1
		c0.1,0.4,0.2,0.7,0.3,1.1c0.3,0.2,0.6,0.3,0.9,0.5c0.3,0.1,0.6,0.3,0.9,0.4c0.3,0.2,0.6,0.3,1,0.4c0.3,0.1,0.6,0.3,1,0.4
		c0.2-0.2,0.4-0.5,0.6-0.7c0.2-0.2,0.4-0.4,0.6-0.6c0.2-0.2,0.4-0.3,0.6-0.4c0.2-0.1,0.4-0.1,0.5-0.1c0,0,0,0,0,0h0c0,0,0,0,0,0
		c0,0,0,0,0,0c0.2,0.1,0.4,0.2,0.5,0.4c0.2,0.2,0.3,0.4,0.5,0.7c0.2,0.3,0.3,0.6,0.5,1c0.2,0.3,0.3,0.7,0.5,1.1
		c0.2,0,0.3,0.1,0.5,0.1c0.2,0,0.3,0.1,0.5,0.1c0.2,0,0.3,0.1,0.5,0.1c0.2,0,0.4,0.1,0.5,0.1c0.2,0,0.3,0.1,0.5,0.1
		c0.2,0,0.3,0.1,0.5,0.1c0.2,0,0.4,0.1,0.5,0.1c0.2,0,0.4,0.1,0.5,0.1c0.2-0.3,0.3-0.6,0.5-0.9c0.2-0.3,0.4-0.5,0.5-0.8
		c0.2-0.2,0.4-0.4,0.5-0.5c0.2-0.1,0.4-0.2,0.6-0.2h0c0,0,0,0,0,0h0c0,0,0,0,0,0c0.2,0,0.4,0.1,0.6,0.3c0.2,0.2,0.4,0.4,0.6,0.7
		c0.2,0.3,0.4,0.6,0.7,0.9c0.2,0.3,0.5,0.7,0.7,1c0.4,0,0.7,0,1.1,0c0.4,0,0.7,0,1.1,0c0.4,0,0.7,0,1.1,0c0.4,0,0.7,0,1.1-0.1
		c0.1-0.4,0.2-0.7,0.4-1.1c0.1-0.3,0.3-0.7,0.4-0.9c0.1-0.3,0.3-0.5,0.4-0.7c0.2-0.2,0.3-0.3,0.5-0.3c0,0,0,0,0.1,0h0.1
		c0,0,0,0,0.1,0c0,0,0,0,0.1,0c0.2,0,0.4,0.1,0.6,0.3c0.2,0.1,0.5,0.3,0.7,0.5c0.2,0.2,0.5,0.5,0.8,0.7c0.3,0.3,0.5,0.6,0.8,0.8
		c0.4-0.1,0.8-0.1,1.1-0.2c0.4-0.1,0.8-0.2,1.1-0.3c0.4-0.1,0.7-0.2,1.1-0.3c0.4-0.1,0.7-0.2,1.1-0.3c0.1-0.4,0.1-0.8,0.2-1.2
		c0.1-0.4,0.1-0.8,0.2-1.1c0.1-0.3,0.2-0.6,0.3-0.8c0.1-0.2,0.3-0.4,0.5-0.5c0,0,0.1,0,0.1,0c0,0,0.1,0,0.1,0h0.1c0,0,0.1,0,0.2,0
		c0.2,0,0.4,0.1,0.7,0.2c0.2,0.1,0.5,0.3,0.8,0.4c0.3,0.2,0.6,0.3,0.9,0.5c0.1,0.1,0.3,0.2,0.4,0.3c-0.5,1.5-0.7,3-0.7,4.6v0.9
		c0,0.3,0,0.6,0.1,0.8c0.2,2.6,1.1,5.2,2.5,7.7c1.4,2.5,3.4,4.5,5.9,6.2c3.4,2.3,7.4,4.1,11.9,5.2c4.6,1.2,9.4,1.7,14.4,1.7
		c0.9,0,1.8,0,2.7-0.1c0.9,0,1.8-0.1,2.7-0.2c8.8-0.7,17.1-3,24.9-6.9c6.7-3.4,11.4-8,14.1-13.6c0.6,1.7,1.5,3.3,2.8,4.7
		c2.3,2.5,5.2,4.4,8.8,5.6c1.3,0.4,2.7,0.8,4.1,1.1c1.4,0.3,2.9,0.4,4.3,0.5c0.3,0.1,0.7,0.1,1,0.1h1.1c2.3,0,4.6-0.2,6.8-0.7
		c2.2-0.4,4.4-1.1,6.4-2c3.3-1.5,5.9-3.6,7.8-6c0.5,1.1,1.2,2.2,2,3.2c1.5,1.9,3.3,3.2,5.3,4c2,0.8,4.1,1.2,6.2,1.3h0.9
		c0.3,0,0.5,0,0.8-0.1c2.2-0.2,4.4-0.8,6.5-1.7c2.1-0.9,4-2.2,5.6-3.7c0.8,1.9,2.2,3.2,3.9,4.1c1.7,0.8,3.6,1.3,5.5,1.3h0.5
		c5.9,0,10.4-1.6,13.5-4.8c0.6-0.6,1.1-1.2,1.7-1.9c0.3,1,0.7,1.9,1.3,2.7c0.9,1.3,2.1,2.2,3.6,2.8c1.5,0.6,3,1,4.5,1.1
		c0.3,0,0.6,0,1,0c0.3,0,0.7,0,1,0c5.7,0,10.1-1.6,13.1-4.9c3-3.3,5.6-7.2,7.8-11.9L264.9,99.9 M159.8,99.3c0.2-0.7,0.4-1.5,0.7-2.2
		c0.9-2.1,2.1-4.1,3.8-5.9c1.6-1.8,3.6-2.6,5.9-2.6c1,0.1,1.8,0.3,2.4,0.7c0.6,0.4,0.8,1.2,0.8,2.2c-0.1,2.5-1.1,4.5-3,5.9
		c-1.9,1.4-4.1,2.4-6.4,3c-0.8,0.2-1.6,0.4-2.4,0.5c-0.8,0.1-1.6,0.2-2.3,0.3C159.5,100.7,159.6,100,159.8,99.3 M214.1,96.5
		c-0.4,1.4-0.9,3.1-1.6,4.9c-0.3,0.7-0.6,1.4-1,2.3c-0.4,0.9-0.8,1.7-1.4,2.7c-1,1.8-2.2,3.4-3.5,4.9c-1.4,1.5-3,2.2-4.7,2.2
		c-0.8,0-1.3-0.3-1.7-0.9c-0.3-0.6-0.5-1.4-0.5-2.3c0-0.4,0-0.8,0-1.2c0-0.4,0.1-0.8,0.2-1.2c0.1-0.5,0.2-1,0.3-1.4
		c0.1-0.5,0.2-0.9,0.4-1.3c0.1-0.5,0.3-1,0.4-1.5c0.1-0.4,0.3-0.7,0.3-0.9c0.2-0.7,0.6-1.5,1.1-2.4c0.5-0.9,1.1-1.9,1.8-2.9
		c0.9-1.4,2-2.7,3.1-3.9c1.2-1.2,2.3-2.1,3.5-2.6c0.3-0.1,0.6-0.2,0.9-0.3c0.3-0.1,0.6-0.1,0.9-0.1c0.9,0,1.4,0.2,1.6,0.6
		c0.2,0.4,0.3,1,0.3,1.7C214.6,93.9,214.4,95.1,214.1,96.5"/>
</g>
</svg>
